/* XPM */
static char *_6501aa648784febe3d93c3a862b5195ghzSZ6XOOcvF8XjR[] = {
/* columns rows colors chars-per-pixel */
"16 16 6 1 ",
"  c None",
". c #393457",
"X c #6A3771",
"o c #CB4D68",
"O c #1E8875",
"+ c white",
/* pixels */
"                ",
"                ",
"  ....   .      ",
"  .OOO. .       ",
"  .OO......     ",
"   .ooo.ooo.    ",
"  .oooooo+oo.   ",
"  .ooooo+++o.   ",
"  .oooooo+oo.   ",
"  .Xoooooooo.   ",
"   .Xoooooo.    ",
"   .XXooooX.    ",
"    .XXXXX.     ",
"     .....      ",
"                ",
"                "
};
