/* XPM */
static char *result[] = {
/* columns rows colors chars-per-pixel */
"16 16 55 1 ",
"  c #3F3C57",
". c #383858",
"X c #42355C",
"o c #4A365D",
"O c #58395B",
"+ c #5F3A5B",
"@ c #723E5E",
"# c #503661",
"$ c #5D366A",
"% c #60366B",
"& c #6A3969",
"* c #6C396A",
"= c #7B3B6F",
"- c #773A70",
"; c #2F5563",
": c #286769",
"> c #25726D",
", c #237970",
"< c #4C4858",
"1 c #465A5E",
"2 c #525058",
"3 c #5D565C",
"4 c #5E5E59",
"5 c #6B4E5B",
"6 c #53615C",
"7 c #717259",
"8 c #924361",
"9 c #994B61",
"0 c #90406E",
"q c #8E5267",
"w c #A54764",
"e c #B14965",
"r c #B04C66",
"t c #B84A66",
"y c #B6486A",
"u c #C44C67",
"i c #CB4D68",
"p c #CD556F",
"a c #D2647C",
"s c #1E8875",
"d c #92965C",
"f c #97975C",
"g c #989E5B",
"h c #A3AA5B",
"j c #AAB25B",
"k c #AFB85C",
"l c #B5C05C",
"z c #C2CC5D",
"x c #C8D45D",
"c c #D67388",
"v c #DF92A3",
"b c #EBBAC4",
"n c #F4D9DF",
"m c #F8E8EB",
"M c #FDF7F8",
/* pixels */
"xxxxxxxxxxxxxxxx",
"xxxxxxxxxxxxxxxx",
"xx7222jxx7jxxxxx",
"xx4:,,1j7gzxxxxx",
"xx4>s;.< <2jxxxx",
"xxl6qreO8ee5jxxx",
"xx79uiitubct5jxx",
"xx4wiiiibMmc+hxx",
"xx4wiiiianvp+hxx",
"xx4&yiiiiapi+hxx",
"xxl3*yiiiii@fzxx",
"xxx4$-yiii0ohxxx",
"xxxl3%-===#dzxxx",
"xxxxl3XXXXdzxxxx",
"xxxxxlkkkkzxxxxx",
"xxxxxxxxxxxxxxxx"
};
