/* XPM */
static char *result[] = {
/* columns rows colors chars-per-pixel */
"16 16 49 1 ",
"  c #181425",
". c #263D35",
"X c #23353C",
"o c #24363C",
"O c #3A623A",
"+ c #3A633A",
"@ c #414E3E",
"# c #525C3F",
"$ c #535D3F",
"% c #5D5E3B",
"& c #467135",
"* c #2A4A44",
"= c #2D5143",
"- c #2E5649",
"; c #315E52",
": c #3B7D4F",
"> c #336352",
", c #346651",
"< c #356A51",
"1 c #366E51",
"2 c #377150",
"3 c #397650",
"4 c #455B47",
"5 c #465B47",
"6 c #4B6E4B",
"7 c #4C6F4B",
"8 c #597047",
"9 c #5A7148",
"0 c #59714D",
"q c #5A714D",
"w c #647349",
"e c #707441",
"r c #63AB3F",
"t c #45844B",
"y c #43864C",
"u c #4A8F49",
"i c #579D44",
"p c #74814A",
"a c #75814A",
"s c #77884F",
"d c #77894F",
"f c #5BA242",
"g c #838A47",
"h c #91984B",
"j c #92994C",
"k c #889750",
"l c #A6AE52",
"z c #A7AF52",
"x c #C8D45D",
/* pixels */
"xxxxxxxxxxxxxxxx",
"xxxxxe    exxxxx",
"xxxjw7O&&+6whxxx",
"xxj@-tfrrft-@hxx",
"xj@-3yirriy3-@hx",
"xs-3::yuuy223-dx",
"x5<::22:::<<:<4%",
"xX;2:<<:::3<,;o ",
"xX><,<3::::31>o ",
"xX<313:22:22:<o ",
"xq<::::<<:<<:<0g",
"xp*2:::3<,<32*ax",
"xz$*2:::3132*#lx",
"xxzk9.=,,=.8klxx",
"xxxxxxxxxxxxxxxx",
"xxxxxxxxxxxxxxxx"
};
