/* XPM */
static char *result[] = {
/* columns rows colors chars-per-pixel */
"16 16 10 1 ",
"  c #14182E",
". c #52333F",
"X c #2B2B45",
"o c #3A3F5E",
"O c #8F4D57",
"+ c #BD6A62",
"@ c #C8D45D",
"# c #4FA4B8",
"$ c #FFC2A1",
"% c #DFE0E8",
/* pixels */
"@@@@@@@@@@@@@@@@",
"@@@@@@      @@@@",
"@@@@@ oooooo @@@",
"@@@@ oooooooo @@",
"@@@@ oooooooo @@",
"@@@@ ooooo$oo @@",
"@@@@ ooooo$$$ @@",
"@@@@ oooooXX$ @@",
"@@@@ oo$$o$ $ @@",
"@@@@@ o$+o$ + @@",
"@@@@@@ o$$$$ @@@",
"@@@@@@  .+  @@@@",
"@@@@@@ % .O% @@@",
"@@@@@@ $+ O% @@@",
"@@@@@@ $$ ## @@@",
"@@@@@@@  ++ @@@@"
};
