/* XPM */
static char *a9ff89682d5d4f45e7fea3de0db5cd67tOW7zAGycRtREgYk[] = {
/* columns rows colors chars-per-pixel */
"16 16 45 1 ",
"  c #15192F",
". c #181C2F",
"X c #151A30",
"o c #191B30",
"O c #191C31",
"+ c #1C1F31",
"@ c #52333F",
"# c #53343F",
"$ c #2B2B45",
"% c #2F2E46",
"& c #3A3F5E",
"* c #543440",
"= c #3E425F",
"- c #40425F",
"; c #424461",
": c #8A4B55",
"> c #8D4C56",
", c #8E4D58",
"< c #904E57",
"1 c #8F505B",
"2 c #91505A",
"3 c #B66760",
"4 c #B86760",
"5 c #BB6A62",
"6 c #BC6B63",
"7 c #BE6C63",
"8 c #BE6C65",
"9 c #C06D64",
"0 c #C1CD5B",
"q c #C4D05C",
"w c #C8D45D",
"e c #4D6783",
"r c #4E6985",
"t c #4EA1B5",
"y c #F6BB9D",
"u c #F7BC9D",
"i c #FBBF9F",
"p c #FCBE9E",
"a c #FBBFA0",
"s c #FFC2A1",
"d c #D8D9E1",
"f c #DCDCE3",
"g c #DBDCE4",
"h c #DCDFE7",
"j c #DFE0E8",
/* pixels */
"wwww0     Oqwwww",
"www0X&&&&&&Oqwww",
"wwq &&&&&&&&.www",
"wwq &=&&&&=&.www",
"wwq =a===;a&.www",
"ww0O=iissiu&+qww",
"wqoa&%%si$%=i.ww",
"wq+u-iosioa-yOww",
"wwq 5i+75+p3.www",
"ww0oO6sssp4O+qww",
"w0+sd#<88>*fi+qw",
"qos5 *2jh>@ 9i.w",
"q+iy >1hg,:oiyOw",
"wq.. ortte  .Oww",
"wwwqO53.O53Owwww",
"wwwwq .wq .wwwww"
};
