/* XPM */
static char *result[] = {
/* columns rows colors chars-per-pixel */
"16 16 9 1 ",
"  c #14182E",
". c #52333F",
"X c #3A3F5E",
"o c #8F4D57",
"O c #BD6A62",
"+ c #C8D45D",
"@ c #4FA4B8",
"# c #FFC2A1",
"$ c #DFE0E8",
/* pixels */
"++++++++++++++++",
"++++++      ++++",
"+++++ XXXXXX +++",
"++++ XXXXXXXX ++",
"++++ XXXXXXXX ++",
"++++ XXXXXXXX ++",
"++++ XXXXXXXX ++",
"+++ #XXXXXXXX# +",
"+++ #XXXXXXXX# +",
"++++ OXXXXXXO ++",
"++++  OOXXOO  ++",
"+++ #$.    .$# +",
"++ #O .o..o. O# ",
"++ ## ..oo.. ## ",
"+++    @@@@    +",
"+++++ OO  OO +++"
};
