/* XPM */
static char *result[] = {
/* columns rows colors chars-per-pixel */
"16 16 6 1 ",
"  c #14182E",
". c #AD2F45",
"X c #C8D45D",
"o c #686F99",
"O c #A3A7C2",
"+ c #DFE0E8",
/* pixels */
"XXXXXXXXXXXXXXXX",
"XXXXXX      XXXX",
"XXXXX ++++OO XXX",
"XXXX ++++++OO XX",
"XXXX ++++OOOO XX",
"XXXX ++OOOOOO XX",
"XXXX +O +OooO XX",
"XXXX O  +oOOo XX",
"XXXX +. OOOOo XX",
"XXXX o+OOOoo XXX",
"XXXX + ++ o XXXX",
"XXXXX    oO XXXX",
"XXXXXX +O + XXXX",
"XXXXXX O O+ XXXX",
"XXXXXX + ++ XXXX",
"XXXXXX oo  XXXXX"
};
