/* XPM */
static char *result[] = {
/* columns rows colors chars-per-pixel */
"16 16 5 1 ",
"  c #14182E",
". c #C8D45D",
"X c #686F99",
"o c #A3A7C2",
"O c #DFE0E8",
/* pixels */
"................",
"......      ....",
"..... oOOOOo ...",
".... oOOOOOOo ..",
".... oOOOOOOo ..",
".... oXOOOOXo ..",
".... XooooooX ..",
".... XooOOooX ..",
".... XooooooX ..",
"..... XooooX ...",
"....    XX    ..",
"... OOXXOOXXOO .",
".. Oo ooOOoo oO ",
".. OO XXOOXX OO ",
"...    oooo    .",
"..... XX  XX ..."
};
