/* XPM */
static char *result[] = {
/* columns rows colors chars-per-pixel */
"16 16 6 1 ",
"  c #14182E",
". c #AD2F45",
"X c #C8D45D",
"o c #686F99",
"O c #A3A7C2",
"+ c #DFE0E8",
/* pixels */
"XXXXXXXXXXXXXXXX",
"XXXXXX      XXXX",
"XXXXX O++++O XXX",
"XXXX O++++++O XX",
"XXXX O++++++O XX",
"XXXX oO++++Oo XX",
"XXXX O O++O O XX",
"XXXX O  OO  O XX",
"XXXX O .++. O XX",
"XXXXX O+oo+O XXX",
"XXXX  + ++ +  XX",
"XXX ++      ++ X",
"XX +O oO++Oo O+ ",
"XX ++ O+oo+O ++ ",
"XXX    oOOo    X",
"XXXXX OO  OO XXX"
};
