/* XPM */
static char *_8fed075e597438b85d624ecd8801007zLCFW8bXzgyrB6V2[] = {
/* columns rows colors chars-per-pixel */
"16 16 45 1 ",
"  c #181425",
". c #5E603B",
"X c #65683E",
"o c #292B47",
"O c #2F2F4A",
"+ c #30324E",
"@ c #2E3251",
"# c #383853",
"$ c #323758",
"% c #373A59",
"& c #353B5E",
"* c #3B3C58",
"= c #505346",
"- c #5B5E46",
"; c #555751",
": c #525556",
"> c #454766",
", c #404973",
"< c #47507A",
"1 c #49517B",
"2 c #585A76",
"3 c #5D5E79",
"4 c #7A8044",
"5 c #828847",
"6 c #8C934A",
"7 c #99A04E",
"8 c #A0A950",
"9 c #A9B253",
"0 c #C8D45D",
"q c #515A84",
"w c #565E88",
"e c #6C6D84",
"r c #666A8A",
"t c #656C93",
"y c #686F99",
"u c #6E7293",
"i c #6A7198",
"p c #7F85A9",
"a c #8287AB",
"s c #898EB0",
"d c #8F94B4",
"f c #9398B7",
"g c #969BB9",
"h c #999DBB",
"j c #A3A7C2",
/* pixels */
"00004      X0000",
"0007;2eeee3:6000",
"007;rgjjjjhu:600",
"07;rgjjjjjjhu:60",
"0;rgjjjjjjjjhu:.",
"0*ajjjjjjjjjjs> ",
"0+tdjjjjjjjjfi% ",
"0o<tdjjjjjjfi1@ ",
"0o,<tdjjjjfi1,@ ",
"0o,,<tppppi1,,@ ",
"0o,,,qyyyyw,,,@ ",
"0-$,,qyyyyw,,&=5",
"09-$,qyyyyw,&=80",
"009-$qyyyyw&=800",
"0009-O####+=8000",
"0000000000000000"
};
